<?xml version="1.0" standalone="no"?>
<!DOCTYPE svg PUBLIC "-//W3C//DTD SVG 20010904//EN"
 "http://www.w3.org/TR/2001/REC-SVG-20010904/DTD/svg10.dtd">
<svg version="1.0" xmlns="http://www.w3.org/2000/svg"
 width="1024.000000pt" height="1024.000000pt" viewBox="0 0 1024.000000 1024.000000"
 preserveAspectRatio="xMidYMid meet">
<metadata>
Created by potrace 1.11, written by Peter Selinger 2001-2013
</metadata>
<g transform="translate(0.000000,1024.000000) scale(0.100000,-0.100000)"
fill="#000000" stroke="none">
<path d="M0 5120 l0 -5120 5120 0 5120 0 0 5120 0 5120 -5120 0 -5120 0 0
-5120z m5475 3729 c417 -37 847 -153 1225 -330 101 -48 108 -53 100 -74 -5
-12 -63 -142 -129 -288 -67 -147 -121 -271 -121 -277 0 -5 4 -10 8 -10 15 0
275 -160 371 -229 555 -398 972 -984 1166 -1639 80 -272 114 -493 122 -795 4
-153 10 -230 17 -233 6 -2 148 -17 315 -34 168 -17 306 -32 309 -34 7 -8 -19
-258 -44 -408 -159 -971 -692 -1826 -1507 -2422 -65 -47 -124 -86 -130 -86 -7
0 -93 115 -192 255 -99 140 -185 254 -191 255 -6 0 -53 -26 -105 -57 -331
-200 -754 -344 -1189 -405 -128 -18 -632 -18 -760 0 -435 61 -858 205 -1189
405 -52 31 -99 57 -105 57 -6 -1 -92 -115 -191 -255 -99 -140 -185 -255 -192
-255 -6 0 -65 39 -130 86 -815 596 -1348 1452 -1507 2422 -25 150 -51 400 -44
408 3 2 141 17 309 34 167 17 309 32 315 34 7 3 13 80 17 233 6 234 19 347 61
554 155 747 602 1432 1227 1880 96 69 356 229 371 229 4 0 8 5 8 10 0 6 -54
130 -121 277 -66 146 -124 276 -129 288 -8 21 -1 26 100 74 440 206 877 312
1425 345 87 5 382 -3 510 -15z m-2455 -811 l-1 -183 -77 -60 c-102 -80 -411
-388 -495 -495 -386 -488 -628 -1020 -729 -1603 l-22 -129 -90 -53 c-137 -80
-214 -121 -219 -115 -5 6 15 195 32 305 139 889 587 1684 1286 2282 74 63 297
232 308 233 4 0 7 -82 7 -182z m4308 110 c492 -363 865 -803 1136 -1336 205
-405 328 -821 381 -1292 7 -63 10 -117 8 -120 -5 -6 -82 35 -219 115 l-90 53
-22 129 c-101 583 -343 1115 -729 1603 -85 108 -394 417 -495 495 l-78 60 0
182 c0 101 3 183 6 183 3 0 49 -32 102 -72z m-3417 -6257 c241 -91 513 -159
789 -198 96 -13 194 -17 420 -17 226 0 324 4 420 17 277 39 545 106 792 199
l109 40 154 -88 c85 -49 155 -92 155 -95 0 -7 -177 -87 -295 -132 -837 -321
-1833 -321 -2670 0 -118 45 -295 125 -295 132 0 7 291 179 306 180 6 1 57 -17
115 -38z"/>
<path d="M3732 7433 c-299 -181 -566 -425 -788 -720 -75 -101 -100 -140 -93
-147 2 -2 274 -159 604 -350 l600 -346 1065 0 1065 0 600 346 c330 191 602
348 604 350 7 7 -18 46 -93 147 -167 223 -359 415 -573 575 -105 79 -318 212
-339 212 -6 0 -64 -117 -129 -260 l-118 -260 -1017 0 -1017 0 -118 260 c-65
143 -123 260 -129 260 -7 0 -62 -30 -124 -67z"/>
<path d="M2677 6263 c-118 -253 -185 -479 -227 -762 -22 -154 -38 -475 -24
-483 5 -3 135 7 289 22 214 22 283 26 291 17 17 -17 996 -1718 1002 -1739 2
-11 -56 -101 -162 -248 l-165 -231 47 -30 c75 -48 269 -144 388 -193 239 -98
529 -165 788 -184 l96 -7 0 702 0 703 -530 918 -530 918 -596 344 c-328 190
-602 346 -609 348 -6 2 -32 -41 -58 -95z"/>
<path d="M6897 6012 l-598 -347 -529 -917 -530 -918 0 -703 0 -702 96 7 c259
19 549 86 788 184 119 49 313 145 388 193 l47 30 -165 231 c-108 150 -164 237
-161 249 5 21 984 1721 1001 1738 8 9 77 5 291 -17 154 -15 284 -25 289 -22
14 8 -2 329 -24 483 -42 283 -109 509 -227 762 -25 53 -51 97 -57 96 -6 0
-280 -157 -609 -347z"/>
<path d="M4251 5583 c353 -618 862 -1488 869 -1488 7 0 498 841 871 1493 l30
52 -901 0 -901 0 32 -57z"/>
</g>
</svg>
