<svg width="70" height="70" viewBox="0 0 70 70" fill="none" xmlns="http://www.w3.org/2000/svg">
<g clip-path="url(#clip0_24_276)">
<path d="M0.185303 32.4365L3.1599 30.7728C4.27683 22.0972 8.84538 14.5114 15.4539 9.4348V5.98706C6.82482 11.8277 0.953191 21.4301 0.185303 32.4365Z" fill="white"/>
<path d="M54.4997 6.04907L54.4531 9.45803C61.4068 14.7596 65.6922 22.5121 66.7859 30.7727L69.7721 32.4986C69.0275 22.1049 63.6484 12.2193 54.4997 6.04907Z" fill="white"/>
<path d="M50.3501 66.3205L47.422 64.5753C39.3514 67.9455 30.4975 67.7826 22.7953 64.5986L19.8091 66.3244C29.1789 70.8736 40.4335 71.1605 50.3501 66.3205Z" fill="white"/>
<path d="M19.3359 3.72202L25.479 17.6875H44.5599L50.703 3.71815C45.9871 1.3408 40.6623 0.00280762 35.0195 0.00280762C29.3805 0.00280762 24.0557 1.34467 19.3359 3.72202Z" fill="white"/>
<path d="M15.2832 35.2599L0.115479 36.9236C0.414102 42.1942 1.91885 47.4802 4.73832 52.3629C7.55779 57.2494 11.3856 61.1936 15.799 64.0906L24.8236 51.785L15.2832 35.2599Z" fill="white"/>
<path d="M54.682 35.2172L45.1416 51.7423L54.1662 64.0479C58.5835 61.1508 62.4036 57.2106 65.2269 52.324C68.0464 47.4374 69.5511 42.1553 69.8498 36.8809L54.682 35.2172Z" fill="white"/>
<path d="M35 6.01416C19.0683 6.01416 6.15381 18.9286 6.15381 34.8604C6.15381 50.7921 19.0683 63.7066 35 63.7066C50.9318 63.7066 63.8463 50.7921 63.8463 34.8604C63.8463 18.9286 50.9318 6.01416 35 6.01416ZM35 9.82258C43.8734 9.82258 51.6609 14.4415 56.1092 21.403L44.7538 27.961H25.2153L13.8831 21.4146C18.3276 14.4454 26.1189 9.82258 35 9.82258ZM33.8831 59.8672C20.573 59.2816 9.96222 48.3101 9.96222 34.8565C9.96222 30.7068 10.9783 26.7937 12.7662 23.3459L24.013 29.8381L33.887 46.9023V59.8672H33.8831ZM34.9845 44.6025L26.592 30.0669H43.377L34.9845 44.6025ZM36.117 59.8672V46.9023L46.0026 29.8109L57.2261 23.3304C59.0179 26.782 60.0378 30.6952 60.0378 34.8526C60.0378 48.3101 49.427 59.2816 36.117 59.8672Z" fill="white"/>
</g>
<defs>
<clipPath id="clip0_24_276">
<rect width="70" height="70" fill="white"/>
</clipPath>
</defs>
</svg>
