<svg width="117" height="65" viewBox="0 0 117 65" fill="none" xmlns="http://www.w3.org/2000/svg">
<g clip-path="url(#clip0_738_916)">
<path d="M77.9999 0H39.0138V61.9449H77.9999V0Z" fill="#E06F77"/>
<path d="M57.7045 7.7276L53.5264 11.3634V15.4L57.7045 11.7644V28.2702H61.4675V7.7276H57.7045Z" fill="white"/>
<path d="M39.014 16.4919H0.0278931V61.9448H39.014V16.4919Z" fill="#6DC5CD"/>
<path d="M23.5744 36.5227C23.9204 36.1218 24.2384 35.7347 24.5152 35.3753C24.7919 35.0296 25.0271 34.6702 25.2069 34.2971C25.3867 33.9377 25.525 33.5507 25.6219 33.1634C25.7188 32.7627 25.7741 32.3202 25.7741 31.8226C25.7741 30.8965 25.6079 30.067 25.3038 29.3205C24.9994 28.5741 24.5705 27.9519 24.0172 27.4404C23.4777 26.9289 22.8137 26.5419 22.039 26.2654C21.278 25.9889 20.4341 25.8368 19.5349 25.8368C18.6494 25.8368 17.8194 25.9752 17.0585 26.2515C16.2975 26.514 15.6335 26.915 15.0663 27.4265C14.4991 27.9519 14.0565 28.5739 13.7382 29.3203C13.4198 30.0667 13.2676 30.8963 13.2676 31.85H17.0169C17.0169 31.3386 17.0861 30.9237 17.2381 30.5921C17.3766 30.2464 17.5701 29.9839 17.8053 29.7765C18.0544 29.5829 18.3171 29.4308 18.6215 29.3479C18.912 29.265 19.2164 29.2235 19.5347 29.2235C20.337 29.2235 20.9597 29.4584 21.3747 29.9286C21.8036 30.3985 22.0111 31.0207 22.0111 31.7809C22.0111 32.2647 21.9282 32.6933 21.762 33.0527C21.6098 33.4258 21.3331 33.8268 20.9458 34.2693L13.2676 43.1856V46.5586H25.7741V43.1856H17.819L23.5744 36.5227Z" fill="white"/>
<path d="M116.986 28.2284H77.9999V61.9448H116.986V28.2284Z" fill="#E1D279"/>
<path d="M102.397 45.5683C101.813 44.8662 101.147 44.3511 100.387 44.0375C101.032 43.6112 101.543 43.0573 101.945 42.3595C102.347 41.6617 102.497 40.762 102.407 39.6459C102.338 38.7778 102.123 38.0044 101.762 37.3123C101.386 36.6075 100.909 36.0215 100.316 35.556C99.709 35.0776 99.015 34.731 98.2332 34.5024C97.4378 34.275 96.5854 34.2044 95.6892 34.2764C94.8203 34.346 94.0315 34.5479 93.2941 34.8705C92.5578 35.2068 91.9257 35.632 91.415 36.1859C90.8894 36.7273 90.4968 37.369 90.2233 38.112C89.936 38.8561 89.8232 39.6973 89.8835 40.6216L93.6206 40.322C93.5989 39.5334 93.8112 38.8922 94.2459 38.4275C94.6805 37.9629 95.2557 37.6948 95.959 37.6384C96.6348 37.5843 97.2316 37.7583 97.7636 38.1595C98.3093 38.5595 98.6094 39.1872 98.6791 40.0553C98.7378 40.7858 98.5794 41.4085 98.2193 41.9366C97.858 42.4511 97.2161 42.752 96.292 42.8262L95.7403 42.8705L96.0013 46.1225L96.5529 46.0782C97.4768 46.0042 98.2001 46.1958 98.7376 46.6659C99.2748 47.1361 99.5922 47.804 99.6608 48.6584C99.7348 49.5818 99.5291 50.3054 99.0451 50.8436C98.5735 51.3667 97.9316 51.6679 97.1178 51.733C96.7593 51.7617 96.3962 51.7352 96.0575 51.6654C95.7177 51.5816 95.401 51.4407 95.135 51.24C94.869 51.0393 94.654 50.7792 94.4618 50.4618C94.2824 50.1296 94.1677 49.7366 94.1174 49.2829L90.3666 49.5834C90.4804 50.6561 90.7464 51.5501 91.1659 52.2791C91.5852 53.0085 92.1325 53.6024 92.7644 54.0371C93.4099 54.4707 94.1293 54.7877 94.933 54.945C95.7241 55.1174 96.5465 55.1624 97.3877 55.095C98.2702 55.0242 99.1016 54.8329 99.8678 54.5219C100.634 54.2109 101.294 53.7837 101.846 53.2263C102.398 52.6689 102.816 51.9974 103.099 51.1982C103.381 50.399 103.49 49.5026 103.408 48.483C103.307 47.229 102.966 46.2579 102.397 45.5683Z" fill="white"/>
<path d="M117 61.1431H0V65H117V61.1431Z" fill="#938F8B"/>
<path opacity="0.1" d="M117 61.1432V65H25.9815L39.0137 51.978L58.3686 32.652L77.9999 13.0221V28.2284H116.986V61.1432H117Z" fill="url(#paint0_linear_738_916)"/>
</g>
<defs>
<linearGradient id="paint0_linear_738_916" x1="25.9815" y1="39.0111" x2="117" y2="39.0111" gradientUnits="userSpaceOnUse">
<stop stop-color="white"/>
<stop offset="1"/>
</linearGradient>
<clipPath id="clip0_738_916">
<rect width="117" height="65" fill="white"/>
</clipPath>
</defs>
</svg>
